<?xml version="1.0" encoding="UTF-8" standalone="no" ?>
<!DOCTYPE svg PUBLIC "-//W3C//DTD SVG 1.1//EN" "http://www.w3.org/Graphics/SVG/1.1/DTD/svg11.dtd">
<svg xmlns="http://www.w3.org/2000/svg" xmlns:xlink="http://www.w3.org/1999/xlink" version="1.1" width="270" height="270" viewBox="0 0 270 270" xml:space="preserve">
<desc>Created with Fabric.js 4.6.0</desc>
<defs>
</defs>
<g transform="matrix(2.93 0 0 2.93 134.1 135.1)" id="y3nKVgND8ublFw9YxMwrL"  >
<path style="stroke: none; stroke-width: 1; stroke-dasharray: none; stroke-linecap: butt; stroke-dashoffset: 0; stroke-linejoin: miter; stroke-miterlimit: 4; fill: rgb(132,159,207); fill-rule: nonzero; opacity: 1;" vector-effect="non-scaling-stroke"  transform=" translate(-43.52, -43.52)" d="M 0 43.524 C 0 19.48636 19.48636 0 43.524 0 C 67.56164 0 87.048 19.48636 87.048 43.524 C 87.048 67.56164 67.56164 87.048 43.524 87.048 C 19.48636 87.048 0 67.56164 0 43.524 z" stroke-linecap="round" />
</g>
<g transform="matrix(2.93 0 0 2.93 134.1 135.2)" id="u642pxGWwo24nVqm8gaaj"  >
<path style="stroke: none; stroke-width: 1; stroke-dasharray: none; stroke-linecap: butt; stroke-dashoffset: 0; stroke-linejoin: miter; stroke-miterlimit: 4; fill: rgb(35,31,32); fill-rule: evenodd; opacity: 1;" vector-effect="non-scaling-stroke"  transform=" translate(-44.53, -44.53)" d="M 44.524 0 C 65.76576371160692 -0.00043769469174623936 84.04975148562079 15.004284474483185 88.19414568797553 35.837827679296076 C 92.33853989033028 56.67137088410897 81.18906058438884 77.53126080473893 61.564321185055114 85.66035234559119 C 41.93958178572139 93.78944388644345 19.305385458512852 86.92365529985003 7.5039781484962305 69.26185156199801 C -4.297429161520391 51.600047824146 -1.979167148824203 28.061323187180076 13.040999999999958 13.04110000000005 C 21.382102378148183 4.678215196274145 32.71249704771894 -0.015137086714739567 44.523999999999994 0 Z M 74.5931 14.455 C 60.24792011744923 0.10964922424198242 37.766936513825804 -2.104656588574178 20.89863479455382 9.166264928759114 C 4.030333075281831 20.437186446092404 -2.5272230103854127 42.05422214024773 5.236309992276446 60.79724297625122 C 12.999842994938305 79.54026381225471 32.922209894331274 90.1890699023771 52.81967445490494 86.23127015971761 C 72.71713901547861 82.27347041705812 87.04797222919164 64.81136878467159 87.048 44.524100000000026 C 87.06258013457557 33.243129848443324 82.58020184695431 22.421599288718863 74.5931 14.454999999999998 Z" stroke-linecap="round" />
</g>
<g transform="matrix(2.93 0 0 2.93 134.74 105.94)" id="vtYXY0FtSW1owYTdHZXsE"  >
<path style="stroke: none; stroke-width: 1; stroke-dasharray: none; stroke-linecap: butt; stroke-dashoffset: 0; stroke-linejoin: miter; stroke-miterlimit: 4; fill: rgb(35,31,32); fill-rule: evenodd; opacity: 1;" vector-effect="non-scaling-stroke"  transform=" translate(-44.75, -34.52)" d="M 44.52 16.8035 C 53.425900000000006 16.8035 67.0854 20.0599 66.73910000000001 33.5517 C 66.6602152099173 39.86785563849361 65.77690303379342 46.1482233568416 64.1105 52.241099999999996 L 24.2172 52.241099999999996 C 23.102610569159506 46.07651492080246 22.620110465492598 39.814266700335736 22.777199999999986 33.55169999999996 C 23.1587 20.0565 35.6156 16.8035 44.52 16.8035 Z" stroke-linecap="round" />
</g>
<g transform="matrix(2.57 0 0 2.93 131.99 108.87)" id="ovYtVGYgDkJkqty7kzaEB"  >
<path style="stroke: none; stroke-width: 1; stroke-dasharray: none; stroke-linecap: butt; stroke-dashoffset: 0; stroke-linejoin: miter; stroke-miterlimit: 4; fill: rgb(35,31,32); fill-rule: evenodd; opacity: 1;" vector-effect="non-scaling-stroke"  transform=" translate(-44.75, -34.52)" d="M 44.52 15.8034 C 44.744800000000005 15.8034 45.0685 15.8088 45.49570000000001 15.8196 C 50.02140000000001 15.935799999999999 55.51700000000001 16.877499999999998 59.900800000000004 19.4264 C 64.893402445174 22.107451950768272 67.93362657566911 27.387888143562847 67.74560000000001 33.05169999999999 C 67.74560000000001 33.1254 67.742 33.3045 67.7356 33.575199999999995 C 67.66337450828298 36.76983517528045 67.42002567656708 39.95830573207171 67.0066 43.12689999999999 C 66.59368702519195 46.30102555382314 65.94570637461882 49.44011844652537 65.06800000000001 52.518299999999996 L 64.85900000000001 53.2412 L 23.3776 53.2412 L 23.2327 52.4129 C 22.6579 49.1202 22.2508 45.938 22.009 42.8063 C 21.769546718809075 39.71854322852426 21.693473927205968 36.620287690561845 21.781099999999995 33.524500000000025 C 21.953500000000002 27.427500000000002 24.464900000000004 23.290900000000004 28.0244 20.549200000000003 C 32.73 16.9248 39.2386 15.8034 44.52 15.8034 Z M 45.448600000000006 17.811799999999998 C 45.231500000000004 17.806399999999996 44.918600000000005 17.8036 44.52 17.8036 C 39.581700000000005 17.8036 33.53 18.8252 29.2432 22.127499999999998 C 26.1262 24.528499999999998 23.926000000000002 28.174999999999997 23.773200000000003 33.5789 C 23.688911229539126 36.60706796667552 23.7649843388669 39.6375749652054 24.001100000000008 42.657700000000034 C 24.2168 45.452999999999996 24.5697 48.299499999999995 25.0604 51.241 L 63.3571 51.241 C 64.10172194668924 48.4909821545572 64.66038478756776 45.69395956747483 65.0293 42.86889999999998 C 65.43384022922311 39.770311535477596 65.67211490021967 36.6522781656579 65.74310000000003 33.52820000000001 C 65.74450000000002 33.4627 65.74560000000001 33.3082 65.74560000000001 33.0517 C 65.91169084841857 28.106787053734685 63.258973801701536 23.495536395036403 58.90080000000001 21.153299999999994 C 54.8433 18.794 49.7007 17.9209 45.4487 17.8118 Z" stroke-linecap="round" />
</g>
<g transform="matrix(2.93 0 0 2.93 134.1 224.35)" id="wqCytDJ5LfsQwBz1eh9NA"  >
<path style="stroke: none; stroke-width: 1; stroke-dasharray: none; stroke-linecap: butt; stroke-dashoffset: 0; stroke-linejoin: miter; stroke-miterlimit: 4; fill: rgb(148,212,206); fill-rule: evenodd; opacity: 1;" vector-effect="non-scaling-stroke"  transform=" translate(-44.52, -74.99)" d="M 64.0851 83.3771 C 51.77736559445111 89.56042739794961 37.27073440554889 89.56042739794961 24.963 83.3771 C 24.911399999999993 82.7963 24.882999999999996 82.2093 24.882999999999996 81.6151 C 24.882999999999996 70.76784091399833 33.676440913998334 61.974399999999996 44.5237 61.974399999999996 C 55.37095908600166 61.974399999999996 64.1644 70.76784091399833 64.1644 81.6151 C 64.1647 82.2093 64.1367 82.7963 64.0851 83.3771 Z" stroke-linecap="round" />
</g>
<g transform="matrix(2.93 0 0 2.93 134.1 224.41)" id="wv1XzVBBzYjssULeakl6w"  >
<path style="stroke: none; stroke-width: 1; stroke-dasharray: none; stroke-linecap: butt; stroke-dashoffset: 0; stroke-linejoin: miter; stroke-miterlimit: 4; fill: rgb(35,31,32); fill-rule: evenodd; opacity: 1;" vector-effect="non-scaling-stroke"  transform=" translate(-44.52, -75.02)" d="M 64.5344 84.2678 C 51.9479730044867 90.61002435259576 37.10012699551331 90.61002435259576 24.5137 84.2678 C 24.185321132194776 84.10228209930574 23.974730271985006 83.7694263136849 23.96580000000001 83.4018 C 23.94000000000001 83.1027 23.92010000000001 82.8162 23.90770000000001 82.54429999999999 C 23.89180000000001 82.1943 23.88330000000001 81.88189999999999 23.88330000000001 81.6151 C 23.90835242334025 70.2332668263512 33.14218925508279 61.01973211969205 44.52405000000002 61.01973211969205 C 55.905910744917236 61.01973211969205 65.13974757665977 70.2332668263512 65.16480000000001 81.6151 C 65.16480000000001 81.8819 65.15630000000002 82.194 65.14040000000001 82.54429999999999 C 65.12710000000001 82.8343 65.10550000000002 83.14189999999999 65.07720000000002 83.463 C 65.04751107519951 83.8068763774253 64.84174833641603 84.11080879515016 64.53350000000002 84.2661 L 64.53440000000002 84.2678 Z M 54.36 85.87 C 57.391276375808246 85.15189325783773 60.333782234116434 84.10056232202605 63.13380000000002 82.73519999999999 L 63.1482 82.45790000000001 C 63.1587 82.2215 63.1647 81.94200000000001 63.1647 81.6149 C 63.18014870770079 74.94495287723228 59.63064337313089 68.77504720684566 53.85686073718448 65.43560603264737 C 48.08307810123809 62.09616485844907 40.96502189876192 62.09616485844907 35.19123926281552 65.43560603264737 C 29.417456626869118 68.77504720684566 25.867951292299217 74.9449528772323 25.8834 81.6149 C 25.8834 81.94200000000001 25.889400000000002 82.2215 25.899800000000003 82.45790000000001 L 25.914300000000004 82.7352 C 34.75298455807603 87.02226494000779 44.79986895945543 88.12946121998839 54.360000000000014 85.87 Z" stroke-linecap="round" />
</g>
<g transform="matrix(2.93 0 0 2.93 134.1 206.29)" id="cARkwRprqgiZIthftuwxx"  >
<path style="stroke: none; stroke-width: 1; stroke-dasharray: none; stroke-linecap: butt; stroke-dashoffset: 0; stroke-linejoin: miter; stroke-miterlimit: 4; fill: rgb(255,203,5); fill-rule: evenodd; opacity: 1;" vector-effect="non-scaling-stroke"  transform=" translate(-44.52, -68.83)" d="M 44.524 55.3272 C 50.8116 55.3272 55.9083 61.372099999999996 55.9083 68.8295 C 55.9083 76.2869 50.8116 82.3317 44.524 82.3317 C 38.2364 82.3317 33.14 76.2868 33.14 68.83 C 33.14 61.3732 38.2365 55.3272 44.524 55.3272 Z M 44.524 58.7254 C 40.1695 58.7254 36.6395 63.1701 36.6395 68.6529 C 36.6395 74.13570000000001 40.17 78.58 44.524 78.58 C 48.878 78.58 52.4086 74.1352 52.4086 68.6525 C 52.4086 63.16980000000001 48.8786 58.7254 44.524 58.7254 Z" stroke-linecap="round" />
</g>
<g transform="matrix(2.93 0 0 2.93 134.1 206.29)" id="TJM3SMjuLl6ElzgCV0dtu"  >
<path style="stroke: none; stroke-width: 1; stroke-dasharray: none; stroke-linecap: butt; stroke-dashoffset: 0; stroke-linejoin: miter; stroke-miterlimit: 4; fill: rgb(35,31,32); fill-rule: evenodd; opacity: 1;" vector-effect="non-scaling-stroke"  transform=" translate(-44.52, -68.83)" d="M 44.524 54.3271 C 47.95657309803806 54.37936188423036 51.18706575483124 55.95950412457294 53.335499999999996 58.637100000000004 C 58.09923029173066 64.59699282857412 58.09923029173066 73.06170717142588 53.33550000000001 79.0216 C 51.220801598630274 81.74104789758378 47.96890147847926 83.3316970694694 44.524 83.3316970694694 C 41.07909852152075 83.3316970694694 37.827198401369735 81.7410478975838 35.712500000000006 79.0216 C 30.948881779829584 73.06166788625286 30.948881779829588 64.59703211374715 35.712500000000006 58.637100000000004 C 37.860970129714545 55.95954897860311 41.09144028109206 54.37941774641369 44.524 54.3271 Z M 51.812200000000004 59.9264 C 50.07542103048131 57.6577091973955 47.381209279211554 56.32718773858745 44.52405 56.32718773858745 C 41.66689072078845 56.32718773858745 38.97267896951869 57.657709197395505 37.2359 59.9264 C 33.1079066291348 65.14402123378522 33.1079066291348 72.51487876621478 37.2359 77.7325 C 38.9726789695187 80.0011908026045 41.66689072078845 81.33171226141255 44.52405 81.33171226141255 C 47.381209279211554 81.33171226141255 50.07542103048131 80.0011908026045 51.812200000000004 77.7325 C 55.9401933708652 72.51487876621478 55.9401933708652 65.14402123378522 51.812200000000004 59.926399999999994 Z M 44.524 57.7253 C 42.0112623638175 57.7802931407934 39.66499302382499 58.993514156885425 38.1676 61.0121 C 34.79664255916105 65.54823182818262 34.79664255916105 71.75746817181738 38.1676 76.2936 C 39.628096848596215 78.35505984707021 41.99760578178262 79.58023691892382 44.524 79.58023691892382 C 47.050394218217384 79.58023691892382 49.41990315140379 78.35505984707021 50.8804 76.2936 C 54.25135744083895 71.75746817181738 54.25135744083895 65.54823182818262 50.8804 61.012100000000004 C 49.383037159885504 58.993478675587774 47.03674914059199 57.78024800070673 44.523999999999994 57.7253 Z M 49.318 62.2542 C 48.235371351513656 60.67165297573343 46.44148053969064 59.72536612336144 44.52405 59.72536612336144 C 42.60661946030936 59.72536612336144 40.81272864848634 60.67165297573343 39.7301 62.2542 C 36.94263384380572 66.06459907514764 36.94263384380572 71.24110092485236 39.7301 75.0515 C 40.81272864848634 76.63404702426658 42.60661946030936 77.58033387663856 44.52405 77.58033387663856 C 46.44148053969064 77.58033387663856 48.235371351513656 76.63404702426658 49.318 75.0515 C 52.10533868908243 71.24105927909861 52.10533868908243 66.06464072090141 49.318 62.2542 Z" stroke-linecap="round" />
</g>
<g transform="matrix(2.93 0 0 2.93 134.1 199.3)" id="EOjvvqwEmo5YE_HIZBbOU"  >
<path style="stroke: none; stroke-width: 1; stroke-dasharray: none; stroke-linecap: butt; stroke-dashoffset: 0; stroke-linejoin: miter; stroke-miterlimit: 4; fill: rgb(255,224,189); fill-rule: nonzero; opacity: 1;" vector-effect="non-scaling-stroke"  transform=" translate(0, 0)" d="M -7.8846 0 C -7.8846 -4.35454 -4.35454 -7.8846 0 -7.8846 C 4.35454 -7.8846 7.8846 -4.35454 7.8846 0 C 7.8846 4.35454 4.35454 7.8846 0 7.8846 C -4.35454 7.8846 -7.8846 4.35454 -7.8846 0 z" stroke-linecap="round" />
</g>
<g transform="matrix(2.93 0 0 2.93 134.1 199.3)" id="81pU_2VZzJadLbTkuHc9J"  >
<path style="stroke: none; stroke-width: 1; stroke-dasharray: none; stroke-linecap: butt; stroke-dashoffset: 0; stroke-linejoin: miter; stroke-miterlimit: 4; fill: rgb(35,31,32); fill-rule: evenodd; opacity: 1;" vector-effect="non-scaling-stroke"  transform=" translate(-44.53, -66.44)" d="M 44.524 57.5544 C 48.76312807936373 57.553973175306574 52.41220512397751 60.54815565909965 53.239531516902204 64.70576772553869 C 54.06685790982691 68.86337979197775 51.84200218785496 73.02642063253998 47.92563983187227 74.64886106351767 C 44.009277475889576 76.27130149449536 39.492215108116795 74.90125055039462 37.136994114389616 71.37660289053753 C 34.781773120662436 67.85195523068042 35.24438250895051 63.154414961811156 38.2419 60.1569 C 39.906216893218904 58.48804741449477 42.16709294902537 57.55142909653799 44.524 57.5544 Z M 49.3923 61.5708 C 47.06977226734391 59.2478355446894 43.42972929774992 58.88901924424287 40.69833913541524 60.71379504162029 C 37.966948973080555 62.53857083899771 36.90497037610831 66.03869418218571 38.16188546214083 69.07356870942682 C 39.41880054817335 72.10844323666792 42.64452781912328 73.83278239455034 45.86628535184615 73.19201931045718 C 49.08804288456901 72.55125622636403 51.40849265196704 69.72385904256774 51.4085 66.439 C 51.4109293733576 64.6126423440951 50.68532357292778 62.86063651250475 49.3923 61.5708 Z" stroke-linecap="round" />
</g>
<g transform="matrix(2.93 0 0 2.93 189.72 157.9)" id="0O8-DfUhdIILKVC8MH0_8"  >
<path style="stroke: none; stroke-width: 1; stroke-dasharray: none; stroke-linecap: butt; stroke-dashoffset: 0; stroke-linejoin: miter; stroke-miterlimit: 4; fill: rgb(255,224,189); fill-rule: evenodd; opacity: 1;" vector-effect="non-scaling-stroke"  transform=" translate(-63.54, -52.29)" d="M 63.5386 47.3567 C 65.53308422160603 47.3567 67.33117868299745 48.55814830806274 68.09443475071966 50.400811458321265 C 68.85769081844187 52.24347460857978 68.43579827745431 54.364471641319895 67.02548495938711 55.7747849593871 C 65.6151716413199 57.1850982774543 63.4941746085798 57.606990818441865 61.65151145832127 56.843734750719655 C 59.80884830806275 56.08047868299744 58.607400000000005 54.28238422160604 58.607400000000005 52.2879 C 58.6073469528152 50.980048183723 59.12686556907568 49.72574734675031 60.051656457913 48.800956457912996 C 60.97644734675032 47.876165569075674 62.23074818372301 47.35664695281519 63.5386 47.3567 Z" stroke-linecap="round" />
</g>
<g transform="matrix(2.93 0 0 2.93 189.72 157.9)" id="qkuCfEIOcMtgHDaftqPRc"  >
<path style="stroke: none; stroke-width: 1; stroke-dasharray: none; stroke-linecap: butt; stroke-dashoffset: 0; stroke-linejoin: miter; stroke-miterlimit: 4; fill: rgb(35,31,32); fill-rule: evenodd; opacity: 1;" vector-effect="non-scaling-stroke"  transform=" translate(-63.54, -52.29)" d="M 63.5386 46.3567 C 66.36850557822687 46.35651365184761 68.80444604373247 48.355410096830816 69.35666126241125 51.13091436969093 C 69.90887648109005 53.90641864255104 68.4235618705173 56.68548925282225 65.80909861848058 57.76851627010054 C 63.19463536644384 58.85154328737883 60.179211351767684 57.93687888937899 58.60698432301044 55.583908896699455 C 57.03475729425318 53.230938904019915 57.34362847806605 50.09501933536639 59.344699999999996 48.094 C 60.45585369648552 46.97999126331285 61.965172449842754 46.35476427406477 63.5386 46.3567 Z M 66.3186 49.5079 C 64.99229558602214 48.180953057140165 62.91331842260393 47.97574375006634 61.35317922485596 49.017778908471534 C 59.79304002710798 50.05981406687673 59.18630051732997 52.05884485028115 59.904044996753605 53.792256068070834 C 60.62178947617724 55.52566728586052 62.46409714440235 56.51063396617163 64.3042052923922 56.14474656354128 C 66.14431344038205 55.77885916091094 67.46967769570982 54.16403208149234 67.4697 52.2879 C 67.47105230276092 51.24499083847014 67.05676246927796 50.2445341523316 66.3185 49.5079 Z" stroke-linecap="round" />
</g>
<g transform="matrix(2.93 0 0 2.93 78.45 157.9)" id="pY9P1HxogEvMtYg4tsXmT"  >
<path style="stroke: none; stroke-width: 1; stroke-dasharray: none; stroke-linecap: butt; stroke-dashoffset: 0; stroke-linejoin: miter; stroke-miterlimit: 4; fill: rgb(255,224,189); fill-rule: evenodd; opacity: 1;" vector-effect="non-scaling-stroke"  transform=" translate(0, 0)" d="M -0.00017 -4.93127 C 1.99432 -4.93131 3.79245 -3.7298899999999997 4.55574 -1.8872299999999997 C 5.31903 -0.044569999999999776 4.89716 2.0764400000000003 3.4868500000000004 3.4867800000000004 C 2.0765400000000005 4.8971100000000005 -0.0444599999999995 5.31902 -1.8871399999999996 4.555770000000001 C -3.7298199999999997 3.7925200000000006 -4.93127 1.9944200000000007 -4.93127 -0.00006999999999912632 C -4.931299999999999 -1.3078999999999992 -4.411779999999999 -2.562169999999999 -3.4870199999999993 -3.4869499999999993 C -2.5622599999999993 -4.4117299999999995 -1.3079999999999994 -4.93127 -0.00016999999999933735 -4.93127 z" stroke-linecap="round" />
</g>
<g transform="matrix(2.93 0 0 2.93 78.45 157.9)" id="Vu4Xm99CEcXyIipiCq2F-"  >
<path style="stroke: none; stroke-width: 1; stroke-dasharray: none; stroke-linecap: butt; stroke-dashoffset: 0; stroke-linejoin: miter; stroke-miterlimit: 4; fill: rgb(35,31,32); fill-rule: evenodd; opacity: 1;" vector-effect="non-scaling-stroke"  transform=" translate(-25.51, -52.29)" d="M 25.51 46.3567 C 28.33991497463812 46.356465939354955 30.775894482473145 48.35533428715903 31.328146632607865 51.1308407960934 C 31.88039878274258 53.906347305027765 30.39510763304685 56.685444466891795 27.78064482758458 57.768497123654065 C 25.166182022122307 58.851549780416335 22.150740397242433 57.93690086340666 20.578498225287046 55.583929683984685 C 19.006256053331658 53.23095850456271 19.315121834751267 50.095025985595946 21.3162 48.094 C 22.427335511114624 46.98002522190922 23.93660928955683 46.35480195535201 25.509999999999998 46.3567 Z M 28.290000000000003 49.5079 C 26.963695586022137 48.180953057140165 24.884718422603928 47.97574375006634 23.324579224855952 49.017778908471534 C 21.76444002710798 50.05981406687673 21.157700517329967 52.05884485028115 21.8754449967536 53.792256068070834 C 22.593189476177237 55.52566728586052 24.435497144402348 56.51063396617163 26.275605292392203 56.14474656354128 C 28.115713440382056 55.77885916091094 29.441077695709822 54.16403208149234 29.441100000000002 52.2879 C 29.44247879625971 51.24500523327426 29.028225791829353 50.244550579190005 28.29 49.5079 Z" stroke-linecap="round" />
</g>
<g transform="matrix(2.93 0 0 2.93 134.1 142.8)" id="ZY0c6_Q5qSxjbRvHXKFQC"  >
<path style="stroke: none; stroke-width: 1; stroke-dasharray: none; stroke-linecap: butt; stroke-dashoffset: 0; stroke-linejoin: miter; stroke-miterlimit: 4; fill: rgb(255,224,189); fill-rule: nonzero; opacity: 1;" vector-effect="non-scaling-stroke"  transform=" translate(-19.5, -19.5)" d="M 0 19.5001 C 0 8.73049 8.73049 0 19.5001 0 C 30.26971 0 39.0002 8.73049 39.0002 19.5001 C 39.0002 30.26971 30.26971 39.0002 19.5001 39.0002 C 8.73049 39.0002 0 30.26971 0 19.5001 z" stroke-linecap="round" />
</g>
<g transform="matrix(2.93 0 0 2.93 134.1 142.8)" id="0XMFBwbvtthfkr2PQ1G-n"  >
<path style="stroke: none; stroke-width: 1; stroke-dasharray: none; stroke-linecap: butt; stroke-dashoffset: 0; stroke-linejoin: miter; stroke-miterlimit: 4; fill: rgb(35,31,32); fill-rule: evenodd; opacity: 1;" vector-effect="non-scaling-stroke"  transform=" translate(-44.53, -47.13)" d="M 44.524 26.6258 C 54.30471107183105 26.62552564171495 62.72355063806259 33.534399094433084 64.63179802086397 43.127151622875715 C 66.54004540366535 52.71990415131836 61.4062141806044 62.32475547764007 52.370008198834796 66.06765416728452 C 43.3338022170652 69.81055285692896 32.91199201320375 66.6490240966124 27.47825762651354 58.51656814771164 C 22.044523239823327 50.38411219881088 23.11227224819862 39.54578649403834 30.028500000000008 32.62999999999999 C 33.86902533793089 28.77969524235513 39.08576191312986 26.61886396748985 44.523999999999994 26.625799999999998 Z M 57.6056 34.0444 C 51.36478363383223 27.80356021192582 41.58455758552601 26.840265860721782 34.24610333048094 31.743627903570374 C 26.907649075435877 36.64698994641897 24.054822169796218 46.05135787890052 27.432293478658018 54.2054094935552 C 30.809764787519818 62.359461108209885 39.47686434682501 66.99218630965672 48.13315277270702 65.27040210001297 C 56.78944119858903 63.54861789036925 63.02402887043558 55.951863706832185 63.0241 47.125999999999976 C 63.030457284824074 42.21820078226362 61.080398950940264 37.510277353171716 57.6056 34.044399999999996 Z" stroke-linecap="round" />
</g>
<g transform="matrix(2.93 0 0 2.93 109.67 157.9)" id="2bha0FDEmEw4Qv1c1mjLP"  >
<path style="stroke: none; stroke-width: 1; stroke-dasharray: none; stroke-linecap: butt; stroke-dashoffset: 0; stroke-linejoin: miter; stroke-miterlimit: 4; fill: rgb(35,31,32); fill-rule: evenodd; opacity: 1;" vector-effect="non-scaling-stroke"  transform=" translate(-36.18, -52.29)" d="M 36.18 49.7565 C 37.2038557265115 49.7565 38.126896024931 50.37325580934256 38.51870864859907 51.319175159311015 C 38.91052127226715 52.265094509279464 38.69394543306859 53.35389477872267 37.96997010589563 54.07787010589563 C 37.24599477872267 54.80184543306859 36.15719450927946 55.01842127226715 35.211275159311015 54.626608648599074 C 34.265355809342566 54.234796024931 33.6486 53.31175572651151 33.6486 52.2879 C 33.64857347645812 51.61652284683617 33.915265264700814 50.972635940913484 34.39000060280715 50.49790060280715 C 34.864735940913484 50.023165264700815 35.50862284683617 49.75647347645812 36.18 49.7565 Z" stroke-linecap="round" />
</g>
<g transform="matrix(2.93 0 0 2.93 158.5 157.9)" id="Dboo8hzfJKv-DvGfIchtK"  >
<path style="stroke: none; stroke-width: 1; stroke-dasharray: none; stroke-linecap: butt; stroke-dashoffset: 0; stroke-linejoin: miter; stroke-miterlimit: 4; fill: rgb(35,31,32); fill-rule: evenodd; opacity: 1;" vector-effect="non-scaling-stroke"  transform=" translate(-52.87, -52.29)" d="M 52.8675 49.7565 C 53.89136482569976 49.756459553416036 54.81443581420292 50.373189718249314 55.20627994612619 51.319105866339854 C 55.598124078049445 52.265022014430386 55.38157292296885 53.35383868553014 54.65760546158384 54.077834747533856 C 53.93363800019884 54.80183080953757 52.844829884718095 55.01842497772948 51.8988982577152 54.626618214162534 C 50.95296663071232 54.234811450595586 50.3362000007989 53.31176482649866 50.3362 52.2879 C 50.33617347766653 51.61654017333162 50.60285153906012 50.97266842297934 51.07756524851569 50.49793595977236 C 51.552278957971254 50.02320349656539 52.19614017280774 49.75649999947611 52.8675 49.7565 Z" stroke-linecap="round" />
</g>
<g transform="matrix(2.93 0 0 2.93 133.95 142.07)" id="_xT9mD01M8gQPvYxX8kE6"  >
<path style="stroke: none; stroke-width: 1; stroke-dasharray: none; stroke-linecap: butt; stroke-dashoffset: 0; stroke-linejoin: miter; stroke-miterlimit: 4; fill: rgb(35,31,32); fill-rule: evenodd; opacity: 1;" vector-effect="non-scaling-stroke"  transform=" translate(-44.48, -46.88)" d="M 65.3366 38.4344 L 59.0556 26.528 L 44.524 24.8406 L 44.524 24.8406 L 29.9922 26.528 L 23.7112 38.4344 C 23.692200000000003 41.375099999999996 23.292800000000003 46.1078 24.009700000000002 48.797 C 26.669700000000002 58.7752 30.749100000000002 68.9102 44.5461 68.9176 C 58.2667 68.92469999999999 62.2247 58.583099999999995 64.8734 48.62239999999999 C 65.6827 45.578599999999994 65.232 41.77729999999999 65.3366 38.43439999999999 Z M 48.88 64.03 C 46.697300000000006 63.874700000000004 45.948100000000004 61.633900000000004 44.5245 61.7312 C 43.101000000000006 61.633900000000004 42.351800000000004 63.874700000000004 40.1691 64.03 C 29.0556 64.822 21.7198 44.0914 28.741799999999998 36.1672 C 30.555719494853157 34.09423998772496 33.258723797480556 33.02435199056062 35.99999999999999 33.2943 C 39.067099999999996 33.5843 42.2385 35.2993 44.524100000000004 35.2483 L 44.524100000000004 35.2483 C 46.786500000000004 35.2983 49.9162 33.6039 52.954100000000004 33.3034 C 55.70135915543961 33.01534892325562 58.420057798834364 34.0626243692112 60.264100000000006 36.1193 C 67.36 43.9733 60.0219 64.8238 48.88 64.03 Z" stroke-linecap="round" />
</g>
<g transform="matrix(2.93 0 0 2.93 133.95 142.01)" id="nC4-HdSjpTXevNlErnGHl"  >
<path style="stroke: none; stroke-width: 1; stroke-dasharray: none; stroke-linecap: butt; stroke-dashoffset: 0; stroke-linejoin: miter; stroke-miterlimit: 4; fill: rgb(35,31,32); fill-rule: evenodd; opacity: 1;" vector-effect="non-scaling-stroke"  transform=" translate(0, 0)" d="M 19.83974 -8.20595 L 13.92494 -19.41735 L 0.03013999999999939 -21.03165 L -13.864460000000001 -19.41735 L -19.78866 -8.187349999999999 C -19.79686 -7.532749999999998 -19.81976 -6.830649999999999 -19.84336 -6.090849999999999 C -19.92926 -3.427649999999999 -20.03126 -0.25544999999999884 -19.51906 1.666450000000001 C -18.21846 6.544650000000001 -16.57836 11.45255 -13.618459999999999 15.090750000000002 C -10.720559999999999 18.652050000000003 -6.493659999999999 21.040750000000003 0.05244000000000071 21.044150000000002 C 6.552440000000001 21.047250000000002 10.728940000000001 18.61485 13.58674 15.009450000000001 C 15.32357 12.703130000000002 16.680680000000002 10.134070000000001 17.606740000000002 7.399450000000001 C 17.518870000000003 7.61232 17.428240000000002 7.823780000000001 17.334840000000003 8.033850000000001 C 16.207200000000004 10.680530000000001 14.545120000000004 13.06581 12.452740000000002 15.04025 C 10.290210000000002 17.16209 7.342040000000003 18.28802 4.315640000000002 18.147850000000002 C 3.0943400000000016 18.012150000000002 1.963300000000002 17.439400000000003 1.131140000000002 16.53525 C 0.714740000000002 16.162750000000003 0.345140000000002 15.832250000000002 0.09684000000000204 15.848950000000002 L -0.03585999999999798 15.848950000000002 C -0.283859999999998 15.832250000000002 -0.653559999999998 16.162550000000003 -1.070259999999998 16.53525 C -1.9023699999999981 17.439420000000002 -3.033379999999998 18.01217 -4.254659999999998 18.147850000000002 C -7.230859999999998 18.289610000000003 -10.134469999999997 17.201600000000003 -12.284659999999997 15.138950000000001 C -13.863279999999996 13.676190000000002 -16.253469999999997 10.112710000000002 -16.253469999999997 10.112710000000002 C -16.253469999999997 10.112710000000002 -16.948289999999997 8.798840000000002 -17.242459999999998 8.113850000000001 C -18.471819999999997 5.375880000000001 -19.21906 2.446150000000001 -19.451259999999998 -0.546149999999999 C -19.74776 -4.710549999999999 -18.878859999999996 -8.685249999999998 -16.498659999999997 -11.37135 C -14.476219999999998 -13.68618 -11.459129999999998 -14.87997 -8.400359999999997 -14.57565 C -6.828639999999997 -14.37157 -5.282609999999997 -14.00346 -3.7875599999999974 -13.47735 C -2.568909999999997 -13.01276 -1.2897899999999973 -12.72579 0.010540000000002436 -12.62525 L 0.030540000000002437 -12.629249999999999 L 0.030540000000002437 -12.629249999999999 L 0.05054000000000244 -12.62525 C 1.3418200000000025 -12.72589 2.6118600000000023 -13.01216 3.8214400000000026 -13.475249999999999 C 5.2938300000000025 -13.994069999999999 6.815770000000002 -14.35977 8.363140000000001 -14.56655 C 9.874830000000001 -14.72008 11.40145 -14.516869999999999 12.820340000000002 -13.97325 L 12.819740000000001 -13.97185 C 14.23281 -13.4255 15.497060000000001 -12.55348 16.50974 -11.42665 C 18.92884 -8.748750000000001 19.81294 -4.75075 19.51414 -0.5566500000000012 C 19.42049 0.7174599999999989 19.22831 1.982409999999999 18.93934 3.226849999999999 C 19.103740000000002 2.648579999999999 19.26247 2.069919999999999 19.41554 1.490849999999999 C 19.8593 -0.7354000000000009 20.00725 -3.010480000000001 19.85554 -5.275450000000001 C 19.83744 -6.266950000000001 19.81904 -7.252350000000002 19.84084 -8.206150000000001 z M 15.44494 -20.81415 L 18.93934 -8.206150000000001 L 21.839440000000003 -8.41125 C 21.807940000000002 -7.409250000000001 21.827540000000003 -6.361250000000001 21.847040000000003 -5.305950000000001 C 22.009550000000004 -2.859290000000001 21.840690000000002 -0.40189000000000075 21.345040000000004 1.9995499999999993 C 19.992340000000006 7.086549999999999 18.297840000000004 12.28055 15.149640000000005 16.25215 C 11.936840000000005 20.30535 7.271840000000005 23.04025 0.052840000000005105 23.03685 C -7.197159999999995 23.033150000000003 -11.909859999999995 20.34985 -15.165159999999995 16.348550000000003 C -18.358859999999996 12.423150000000003 -20.089659999999995 7.272650000000002 -21.448859999999996 2.173650000000004 C -22.033059999999995 -0.018349999999996314 -21.925659999999997 -3.3539499999999958 -21.835559999999997 -6.1539499999999965 C -21.808559999999996 -6.996449999999997 -21.782759999999996 -7.790649999999997 -21.77856 -8.446949999999998 L -21.66546 -8.907849999999998 L -15.38446 -20.814149999999998 L -11.331430000000001 -19.72883 L -14.61486 -21.34145 L -0.08366000000000007 -23.02895 L 0.029739999999999933 -23.036849999999998 L 0.029739999999999933 -23.036849999999998 L 0.2699999999999999 -19.72883 L 14.67464 -21.34145 L 15.19824 -21.28045 L 15.44434 -20.814149999999998 z M 2.45934 15.05145 C 1.8799100000000002 14.296270000000002 0.9822000000000002 13.85354 0.030340000000000256 13.85354 C -0.9215199999999998 13.85354 -1.8192299999999997 14.29626 -2.3986599999999996 15.05145 C -2.9211499999999995 15.63363 -3.6245499999999993 16.0228 -4.395359999999999 16.15615 C -6.83606 16.25425 -9.210259999999998 15.3474 -10.96406 13.64715 C -12.8765 11.866299999999999 -14.39499 9.70485 -15.421859999999999 7.30185 C -16.555719999999997 4.7762899999999995 -17.24485 2.0738700000000003 -17.458859999999998 -0.6862500000000002 C -17.719859999999997 -4.352550000000001 -17.000159999999997 -7.80035 -15.006259999999997 -10.050450000000001 C -13.400449999999998 -11.88108 -11.011409999999998 -12.826490000000002 -8.587759999999998 -12.59045 C -7.154699999999997 -12.393450000000001 -5.745299999999998 -12.05171 -4.381159999999998 -11.570450000000001 C -2.9675499999999975 -11.033380000000001 -1.4796999999999976 -10.71704 0.030140000000002054 -10.632550000000002 L 0.030140000000002054 -10.628850000000002 L 0.030140000000002054 -10.628850000000002 L 0.030140000000002054 -10.632550000000002 C 1.5309700000000022 -10.716620000000002 3.009790000000002 -11.032150000000001 4.414240000000002 -11.567950000000002 C 5.758250000000002 -12.043050000000001 7.146380000000002 -12.382640000000002 8.557940000000002 -12.581650000000002 C 9.759240000000002 -12.704680000000002 10.972640000000002 -12.54418 12.100640000000002 -12.113050000000001 L 12.104640000000002 -12.113050000000001 C 13.226020000000002 -11.678310000000002 14.228980000000002 -10.985050000000001 15.031940000000002 -10.08965 C 17.05394 -7.851450000000001 17.78384 -4.38665 17.521040000000003 -0.6967500000000015 C 17.30937 2.0406899999999983 16.63059 4.721679999999998 15.514140000000003 7.2300499999999985 C 14.499290000000002 9.621319999999999 13.002130000000003 11.777569999999997 11.116240000000003 13.564049999999998 C 9.351450000000003 15.313809999999998 6.939570000000003 16.252599999999997 4.456240000000003 16.156349999999996 C 3.685330000000003 16.022989999999997 2.9818500000000028 15.633749999999996 2.4593400000000027 15.051449999999996 z" stroke-linecap="round" />
</g>
</svg>