<?xml version="1.0" encoding="UTF-8" standalone="no" ?>
<!DOCTYPE svg PUBLIC "-//W3C//DTD SVG 1.1//EN" "http://www.w3.org/Graphics/SVG/1.1/DTD/svg11.dtd">
<svg xmlns="http://www.w3.org/2000/svg" xmlns:xlink="http://www.w3.org/1999/xlink" version="1.1" width="270" height="270" viewBox="0 0 270 270" xml:space="preserve">
<desc>Created with Fabric.js 4.6.0</desc>
<defs>
</defs>
<g transform="matrix(1.75 0 0 1.75 135 141.34)" id="8EZ8nChqPd_rB4PxBFS7k"  >
<path style="stroke: none; stroke-width: 1; stroke-dasharray: none; stroke-linecap: butt; stroke-dashoffset: 0; stroke-linejoin: miter; stroke-miterlimit: 4; fill: rgb(0,0,0); fill-rule: nonzero; opacity: 1;" vector-effect="non-scaling-stroke"  transform=" translate(0, 0)" d="M -5.13856 72.85871 C -5.16256 72.85871 -5.18656 72.85771 -5.21056 72.85671 C -5.73356 72.81871000000001 -6.13956 72.38371000000001 -6.13956 71.85871 L -6.12856 42.62871 L -14.35356 70.67770999999999 C -14.50056 71.18171 -15.00456 71.48670999999999 -15.52656 71.37370999999999 C -16.03956 71.26270999999998 -16.37856 70.77270999999999 -16.30356 70.25370999999998 L -12.13156 41.320709999999984 L -24.26656 67.91570999999999 C -24.48456 68.39370999999998 -25.035559999999997 68.62070999999999 -25.52556 68.43771 C -26.01756 68.25371 -26.283559999999998 67.72171 -26.135559999999998 67.21871 L -17.89056 39.174710000000005 L -33.684560000000005 63.771710000000006 C -33.967560000000006 64.21271 -34.54656000000001 64.35971 -35.004560000000005 64.10871 C -35.46556 63.857710000000004 -35.65256000000001 63.29271 -35.43556 62.81571 L -23.28356 36.22871000000001 L -42.41856 58.32871000000001 C -42.76156 58.72471000000001 -43.35356 58.78771000000001 -43.773559999999996 58.47471000000001 C -44.19356 58.15971000000001 -44.29956 57.57471000000001 -44.015559999999994 57.13271000000001 L -28.20255999999999 32.54771000000001 L -50.286559999999994 51.698710000000005 C -50.682559999999995 52.04271000000001 -51.277559999999994 52.022710000000004 -51.648559999999996 51.650710000000004 C -52.01956 51.27971 -52.04056 50.68471 -51.69656 50.28871 L -32.54656 28.20371 L -57.13056 44.01671 C -57.571560000000005 44.299710000000005 -58.156560000000006 44.195710000000005 -58.47256 43.774710000000006 C -58.78656 43.354710000000004 -58.72256 42.762710000000006 -58.32656 42.41971000000001 L -36.22756 23.28571000000001 L -62.81256 35.43771000000001 C -63.289559999999994 35.65271000000001 -63.85456 35.46771000000001 -64.10556 35.00671000000001 C -64.35755999999999 34.54671000000001 -64.20956 33.96971000000001 -63.768559999999994 33.68671000000001 L -39.17455999999999 17.88971000000001 L -67.21856 26.13571000000001 C -67.72156 26.28171000000001 -68.25356 26.01771000000001 -68.43755999999999 25.52571000000001 C -68.62056 25.03371000000001 -68.39356 24.48371000000001 -67.91555999999999 24.26671000000001 L -41.320559999999986 12.13271000000001 L -70.25356 16.302710000000012 C -70.77556 16.375710000000012 -71.26155999999999 16.038710000000012 -71.37356 15.525710000000013 C -71.48555999999999 15.012710000000013 -71.18156 14.501710000000013 -70.67756 14.353710000000012 L -42.62756 6.127710000000011 L -71.85856000000001 6.138710000000011 C -72.38356000000002 6.138710000000011 -72.81856 5.733710000000011 -72.85656000000002 5.209710000000011 C -72.89356000000002 4.686710000000011 -72.52056000000002 4.222710000000011 -72.00156000000001 4.148710000000011 L -43.06556000000001 -0.0012899999999893552 L -72.00156000000001 -4.15128999999999 C -72.52156000000001 -4.2252899999999896 -72.89456000000001 -4.68928999999999 -72.85656000000002 -5.21228999999999 C -72.81856000000002 -5.735289999999989 -72.38356000000002 -6.14128999999999 -71.85856000000001 -6.14128999999999 L -71.85856000000001 -6.14128999999999 L -42.62756000000001 -6.13028999999999 L -70.67856 -14.35728999999999 C -71.18256000000001 -14.50428999999999 -71.48656000000001 -15.01628999999999 -71.37456 -15.52928999999999 C -71.26356 -16.04228999999999 -70.77656 -16.38128999999999 -70.25456 -16.30628999999999 L -41.32156 -12.13528999999999 L -67.91556 -24.26928999999999 C -68.39356 -24.48728999999999 -68.62056 -25.03728999999999 -68.43756 -25.52828999999999 C -68.25356000000001 -26.020289999999992 -67.72056 -26.28428999999999 -67.21856000000001 -26.13828999999999 L -39.174560000000014 -17.89228999999999 L -63.77056000000002 -33.686289999999985 C -64.21156000000002 -33.96928999999999 -64.35956000000002 -34.546289999999985 -64.10756000000002 -35.00728999999998 C -63.85756000000002 -35.467289999999984 -63.29156000000002 -35.65528999999999 -62.81456000000002 -35.43728999999998 L -36.22956000000002 -23.284289999999984 L -58.32756000000002 -42.418289999999985 C -58.72356000000002 -42.76128999999999 -58.78756000000002 -43.35328999999999 -58.47356000000002 -43.77328999999998 C -58.15856000000002 -44.19328999999998 -57.57356000000002 -44.299289999999985 -57.13156000000002 -44.01528999999998 L -32.54756000000002 -28.20328999999998 L -51.69756000000002 -50.28828999999998 C -52.04156000000002 -50.68428999999998 -52.02056000000002 -51.27928999999998 -51.649560000000015 -51.650289999999984 C -51.277560000000015 -52.022289999999984 -50.683560000000014 -52.04128999999998 -50.28756000000001 -51.698289999999986 L -28.203560000000014 -32.54828999999999 L -44.015560000000015 -57.13328999999999 C -44.299560000000014 -57.57428999999999 -44.19456000000002 -58.16028999999999 -43.77356000000002 -58.47428999999999 C -43.35456000000002 -58.79028999999999 -42.76156000000002 -58.72428999999999 -42.41856000000002 -58.32828999999999 L -23.28356000000002 -36.22828999999999 C -23.28356000000002 -36.22828999999999 -27.752650000000017 -46.00607999999998 -30.79065000000002 -52.65282999999999 C -33.82865000000002 -59.299579999999985 -35.435560000000024 -62.81528999999999 -35.435560000000024 -62.81528999999999 C -35.65356000000003 -63.29228999999999 -35.465560000000025 -63.85728999999999 -35.004560000000026 -64.10829 C -34.54656000000003 -64.35929 -33.96756000000003 -64.21329 -33.684560000000026 -63.77128999999999 L -17.890560000000026 -39.17428999999999 L -26.135560000000027 -67.21829 C -26.283560000000026 -67.72129 -26.017560000000028 -68.25429 -25.525560000000027 -68.43728999999999 C -25.034560000000027 -68.62029 -24.484560000000027 -68.39329 -24.266560000000027 -67.91528999999998 L -12.131560000000027 -41.320289999999986 L -16.303560000000026 -70.25328999999999 C -16.377560000000027 -70.77229 -16.038560000000025 -71.26128999999999 -15.526560000000027 -71.37329 C -15.011560000000026 -71.48629 -14.502560000000027 -71.18129 -14.353560000000027 -70.67729 L -6.128560000000027 -42.62829 L -6.139560000000027 -71.85829 C -6.139560000000027 -72.38329 -5.734560000000027 -72.81828999999999 -5.210560000000027 -72.85629 C -4.691560000000027 -72.89229 -4.223560000000027 -72.52029 -4.1485600000000264 -72.00129 L 0.0014399999999739066 -43.066289999999995 L 4.147439999999974 -72.00129 C 4.222439999999974 -72.52129 4.687439999999974 -72.89229 5.209439999999974 -72.85629 C 5.732439999999974 -72.81829 6.138439999999974 -72.38329 6.138439999999974 -71.85829 L 6.127439999999974 -42.62629 L 14.354439999999975 -70.67729 C 14.503439999999975 -71.18129 15.015439999999975 -71.48629 15.527439999999975 -71.37329 C 16.040439999999975 -71.26229 16.379439999999974 -70.77229 16.304439999999975 -70.25328999999999 L 12.133439999999975 -41.32128999999999 L 24.265439999999977 -67.91529 C 24.483439999999977 -68.39329 25.031439999999975 -68.62228999999999 25.52543999999998 -68.43729 C 26.016439999999978 -68.25329 26.283439999999977 -67.72129000000001 26.134439999999977 -67.21829000000001 L 17.888439999999974 -39.17329000000001 L 33.68543999999997 -63.77129000000001 C 33.96943999999997 -64.21229000000001 34.54443999999997 -64.35929 35.00643999999997 -64.10829000000001 C 35.46643999999997 -63.85729000000001 35.65443999999997 -63.29229000000001 35.43643999999997 -62.81529000000001 L 23.28243999999997 -36.22929000000001 L 42.41743999999997 -58.32829000000001 C 42.76143999999997 -58.72429000000001 43.35043999999997 -58.78929000000001 43.77243999999997 -58.47429000000001 C 44.19243999999997 -58.16029000000001 44.297439999999966 -57.57429000000001 44.01343999999997 -57.13329000000001 L 28.200439999999965 -32.54929000000001 L 50.285439999999966 -51.69929000000001 C 50.68143999999997 -52.042290000000015 51.27743999999996 -52.02329000000001 51.64743999999997 -51.65129000000001 C 52.01843999999997 -51.28029000000001 52.04043999999997 -50.68529000000001 51.69643999999997 -50.28929000000001 L 32.54543999999997 -28.204290000000007 L 57.132439999999974 -44.01729000000001 C 57.57343999999998 -44.30129000000001 58.16043999999997 -44.19529000000001 58.47443999999997 -43.77529000000001 C 58.78843999999997 -43.35529000000001 58.72543999999997 -42.76329000000001 58.32843999999997 -42.420290000000016 L 36.23043999999997 -23.285290000000014 L 62.814439999999976 -35.438290000000016 C 63.29543999999998 -35.655290000000015 63.857439999999976 -35.46729000000002 64.10843999999997 -35.00829000000002 C 64.35943999999998 -34.54729000000002 64.21243999999997 -33.97029000000002 63.77043999999997 -33.68729000000002 L 39.17343999999997 -17.893290000000018 L 67.21743999999997 -26.139290000000017 C 67.72543999999996 -26.285290000000018 68.25343999999997 -26.020290000000017 68.43643999999996 -25.529290000000017 C 68.62043999999996 -25.037290000000016 68.39243999999997 -24.487290000000016 67.91543999999996 -24.270290000000017 L 41.32143999999996 -12.136290000000017 L 70.25443999999996 -16.307290000000016 C 70.76943999999996 -16.379290000000015 71.26343999999996 -16.043290000000017 71.37443999999996 -15.530290000000017 C 71.48543999999997 -15.017290000000017 71.18243999999997 -14.506290000000018 70.67843999999997 -14.358290000000016 L 42.627439999999964 -6.131290000000016 L 71.85943999999996 -6.142290000000016 C 72.38343999999996 -6.142290000000016 72.81943999999996 -5.737290000000016 72.85643999999996 -5.213290000000016 C 72.89443999999996 -4.690290000000016 72.52043999999997 -4.226290000000016 72.00143999999996 -4.152290000000016 L 43.06543999999996 -0.0022900000000154463 L 72.00143999999996 4.147709999999985 C 72.52143999999996 4.221709999999985 72.89543999999997 4.685709999999985 72.85643999999996 5.208709999999985 C 72.81943999999996 5.7317099999999845 72.38343999999996 6.137709999999985 71.85943999999996 6.137709999999985 L 71.85943999999996 6.137709999999985 L 42.627439999999964 6.126709999999985 L 70.67843999999997 14.352709999999986 C 71.18243999999997 14.499709999999986 71.48643999999997 15.011709999999987 71.37443999999996 15.524709999999986 C 71.26343999999996 16.038709999999988 70.76943999999996 16.377709999999986 70.25443999999996 16.301709999999986 L 41.32143999999996 12.131709999999986 L 67.91543999999996 24.265709999999984 C 68.39343999999996 24.483709999999984 68.62043999999996 25.033709999999985 68.43643999999996 25.524709999999985 C 68.25343999999996 26.015709999999984 67.72543999999996 26.283709999999985 67.21743999999997 26.134709999999984 L 39.172439999999966 17.889709999999987 L 63.76943999999997 33.68370999999999 C 64.21043999999996 33.96670999999999 64.35843999999997 34.54370999999999 64.10743999999997 35.00370999999999 C 63.85643999999997 35.46370999999999 63.294439999999966 35.65270999999999 62.81343999999997 35.43470999999999 L 36.22943999999997 23.282709999999987 L 58.32743999999997 42.41670999999999 C 58.724439999999966 42.75970999999999 58.788439999999966 43.35170999999999 58.47343999999997 43.771709999999985 C 58.15943999999997 44.19070999999998 57.57343999999997 44.29670999999998 57.13143999999997 44.01370999999998 L 32.544439999999966 28.20070999999998 L 51.69543999999996 50.28570999999998 C 52.03943999999996 50.68170999999998 52.017439999999965 51.27670999999998 51.64643999999996 51.64770999999998 C 51.276439999999965 52.02070999999998 50.679439999999964 52.039709999999985 50.28443999999996 51.695709999999984 L 28.19943999999996 32.54470999999998 L 44.01243999999996 57.12970999999998 C 44.29643999999996 57.570709999999984 44.191439999999965 58.15670999999998 43.77143999999996 58.47170999999998 C 43.34843999999996 58.78470999999998 42.75943999999996 58.72070999999998 42.416439999999966 58.32570999999998 L 23.281439999999964 36.22670999999998 L 35.43443999999997 62.81270999999998 C 35.65343999999997 63.28970999999998 35.46443999999997 63.85470999999998 35.00443999999997 64.10570999999999 C 34.542439999999964 64.35770999999998 33.96743999999997 64.20970999999999 33.68343999999997 63.768709999999984 L 17.88643999999997 39.170709999999985 L 26.132439999999967 67.21570999999999 C 26.280439999999967 67.71870999999999 26.01443999999997 68.25170999999999 25.523439999999965 68.43470999999998 C 25.030439999999967 68.61870999999998 24.481439999999964 68.39070999999998 24.263439999999964 67.91270999999998 L 12.131439999999964 41.318709999999975 L 16.302439999999965 70.25070999999997 C 16.376439999999967 70.76970999999998 16.037439999999965 71.25870999999997 15.525439999999966 71.37070999999997 C 15.013439999999965 71.48370999999997 14.502439999999966 71.17870999999998 14.352439999999966 70.67470999999998 L 6.125439999999966 42.623709999999974 L 6.136439999999966 71.85570999999997 C 6.136439999999966 72.38070999999998 5.7314399999999655 72.81570999999997 5.207439999999965 72.85370999999998 C 4.685439999999965 72.88470999999998 4.221439999999966 72.51770999999998 4.145439999999965 71.99870999999997 L -0.0005600000000347549 43.06370999999997 L -4.150560000000035 71.99870999999997 C -4.220560000000035 72.49570999999997 -4.645560000000035 72.85870999999997 -5.1385600000000355 72.85870999999997 z M -5.12656 34.65471 C -5.0785599999999995 34.65471 -5.0305599999999995 34.65771 -4.982559999999999 34.66471 C -4.490559999999999 34.73571 -4.125559999999999 35.15771 -4.125559999999999 35.65471 L -4.13456 57.80671 L -0.9885599999999997 35.87771000000001 C -0.9175599999999997 35.38571000000001 -0.49555999999999967 35.01971000000001 0.00144000000000033 35.01971000000001 L 0.00144000000000033 35.01971000000001 C 0.4984400000000003 35.01971000000001 0.9204400000000004 35.38571000000001 0.9914400000000003 35.87771000000001 L 4.13344 57.79571000000001 L 4.12444 35.653710000000004 C 4.12444 35.155710000000006 4.48944 34.73471000000001 4.98144 34.66371 C 5.46644 34.59671 5.94344 34.89371 6.08444 35.37171 L 12.31944 56.63171 L 9.157440000000001 34.702709999999996 C 9.08744 34.21071 9.388440000000001 33.74070999999999 9.86644 33.60071 C 10.33744 33.46071 10.85144 33.69171 11.057440000000001 34.144709999999996 L 20.24944 54.294709999999995 L 14.00244 33.04571 C 13.86144 32.56771 14.09344 32.06071 14.54644 31.85371 C 14.997440000000001 31.64671 15.53444 31.80371 15.80344 32.22271 L 27.77544 50.86471 L 18.564439999999998 30.71571 C 18.357439999999997 30.26371 18.514439999999997 29.727710000000002 18.932439999999996 29.45871 C 19.353439999999996 29.18771 19.903439999999996 29.26971 20.229439999999997 29.64571 L 34.72844 46.39071 L 22.74644 27.761709999999997 C 22.47644 27.343709999999998 22.55644 26.790709999999997 22.93244 26.464709999999997 C 23.30944 26.139709999999997 23.86644 26.138709999999996 24.24344 26.464709999999997 L 40.97944 40.977709999999995 L 26.46644 24.241709999999994 C 26.14144 23.865709999999993 26.14144 23.307709999999993 26.46644 22.931709999999995 C 26.79244 22.556709999999995 27.34244 22.475709999999996 27.76344 22.744709999999994 L 46.39644 34.72870999999999 L 29.65044 20.228709999999992 C 29.27444 19.902709999999992 29.19444 19.350709999999992 29.46344 18.932709999999993 C 29.732439999999997 18.513709999999993 30.26844 18.359709999999993 30.72044 18.563709999999993 L 50.86444 27.77170999999999 L 32.225440000000006 15.802709999999992 C 31.806440000000006 15.533709999999992 31.649440000000006 14.998709999999992 31.856440000000006 14.545709999999993 C 32.06244000000001 14.093709999999993 32.570440000000005 13.861709999999993 33.04744000000001 14.001709999999992 L 54.30044000000001 20.25070999999999 L 34.14744000000001 11.05570999999999 C 33.69544000000001 10.84870999999999 33.46244000000001 10.34170999999999 33.60244000000001 9.86470999999999 C 33.74344000000001 9.38670999999999 34.222440000000006 9.09070999999999 34.70544000000001 9.15670999999999 L 56.63044000000001 12.31670999999999 L 35.37344 6.08370999999999 C 34.89544 5.9437099999999905 34.59444 5.47470999999999 34.66444 4.98170999999999 C 34.73544 4.4887099999999895 35.15744 4.12370999999999 35.65444 4.12370999999999 L 35.65444 4.12370999999999 L 57.805440000000004 4.13170999999999 L 35.87944 0.9867099999999902 C 35.38644 0.9167099999999901 35.021440000000005 0.4947099999999902 35.021440000000005 -0.003290000000009785 C 35.021440000000005 -0.5012900000000098 35.38644000000001 -0.9222900000000098 35.87944 -0.9932900000000098 L 57.805440000000004 -4.13829000000001 L 35.65444000000001 -4.13029000000001 C 35.15744000000001 -4.13029000000001 34.73544000000001 -4.4952900000000104 34.664440000000006 -4.98729000000001 C 34.594440000000006 -5.480290000000011 34.89544000000001 -5.94929000000001 35.37344000000001 -6.089290000000011 L 56.63144000000001 -12.32329000000001 L 34.70544000000001 -9.162290000000011 C 34.22344000000001 -9.091290000000011 33.74344000000001 -9.392290000000012 33.60244000000001 -9.870290000000011 C 33.46244000000001 -10.347290000000012 33.69544000000001 -10.85529000000001 34.14744000000001 -11.061290000000012 L 54.30044000000001 -20.256290000000014 L 33.04744000000001 -14.007290000000015 C 32.56944000000001 -13.868290000000016 32.06244000000001 -14.098290000000015 31.85644000000001 -14.551290000000016 C 31.64944000000001 -15.004290000000015 31.80644000000001 -15.539290000000015 32.22544000000001 -15.808290000000015 L 50.862440000000014 -27.776290000000017 L 30.720440000000014 -18.56829000000002 C 30.263440000000013 -18.361290000000018 29.731440000000013 -18.51929000000002 29.463440000000013 -18.93729000000002 C 29.193440000000013 -19.355290000000018 29.274440000000013 -19.90829000000002 29.650440000000014 -20.233290000000018 L 46.39744000000002 -34.73529000000002 L 27.763440000000017 -22.75029000000002 C 27.341440000000016 -22.481290000000023 26.791440000000016 -22.562290000000022 26.466440000000016 -22.937290000000022 C 26.141440000000017 -23.313290000000023 26.141440000000017 -23.871290000000023 26.466440000000016 -24.24729000000002 L 40.980440000000016 -40.98529000000002 L 24.242440000000016 -26.469290000000022 C 23.865440000000017 -26.14329000000002 23.308440000000015 -26.14329000000002 22.931440000000016 -26.469290000000022 C 22.555440000000015 -26.795290000000023 22.476440000000018 -27.347290000000022 22.745440000000016 -27.766290000000023 L 34.72644000000002 -46.392290000000024 L 20.22844000000002 -29.649290000000025 C 19.90344000000002 -29.274290000000025 19.35344000000002 -29.192290000000025 18.93144000000002 -29.462290000000024 C 18.51344000000002 -29.731290000000023 18.35644000000002 -30.267290000000024 18.56344000000002 -30.719290000000026 L 27.77444000000002 -50.86829000000003 L 15.80244000000002 -32.226290000000034 C 15.53344000000002 -31.807290000000034 14.996440000000021 -31.651290000000035 14.54544000000002 -31.857290000000035 C 14.092440000000021 -32.064290000000035 13.86044000000002 -32.57129000000003 14.00144000000002 -33.049290000000035 L 20.24844000000002 -54.29829000000004 L 11.05644000000002 -34.14829000000004 C 10.85044000000002 -33.695290000000035 10.33544000000002 -33.46529000000004 9.865440000000019 -33.60429000000004 C 9.38744000000002 -33.74429000000004 9.08644000000002 -34.21429000000004 9.15644000000002 -34.70629000000004 L 12.31844000000002 -56.63529000000004 L 6.08344000000002 -35.375290000000035 C 5.94244000000002 -34.896290000000036 5.46644000000002 -34.595290000000034 4.98044000000002 -34.66729000000004 C 4.48844000000002 -34.738290000000035 4.12344000000002 -35.16029000000004 4.12344000000002 -35.65729000000004 L 4.13244000000002 -57.79929000000004 L 0.9904400000000204 -35.88129000000004 C 0.9194400000000205 -35.389290000000045 0.4974400000000204 -35.023290000000046 0.00044000000002042405 -35.023290000000046 C -0.4965599999999796 -35.023290000000046 -0.9185599999999796 -35.389290000000045 -0.9895599999999796 -35.88129000000004 L -4.1355599999999795 -57.81029000000004 L -4.126559999999979 -35.65829000000004 C -4.126559999999979 -35.16029000000004 -4.491559999999979 -34.73929000000004 -4.983559999999979 -34.668290000000034 C -5.467559999999979 -34.59629000000003 -5.94455999999998 -34.89829000000003 -6.086559999999979 -35.37629000000003 L -12.31855999999998 -56.63029000000003 L -9.15755999999998 -34.70729000000003 C -9.08755999999998 -34.21529000000003 -9.38855999999998 -33.745290000000026 -9.86555999999998 -33.60529000000003 C -10.34155999999998 -33.46629000000003 -10.85055999999998 -33.69729000000003 -11.057559999999981 -34.14929000000003 L -20.25355999999998 -54.30429000000003 L -14.00455999999998 -33.05029000000003 C -13.86355999999998 -32.57229000000003 -14.09555999999998 -32.06529000000003 -14.54855999999998 -31.858290000000032 C -15.002559999999981 -31.65129000000003 -15.53655999999998 -31.810290000000034 -15.80555999999998 -32.22729000000003 L -27.77455999999998 -50.86729000000003 L -18.56555999999998 -30.719290000000033 C -18.35855999999998 -30.26729000000003 -18.51655999999998 -29.731290000000033 -18.93455999999998 -29.46229000000003 C -19.35255999999998 -29.193290000000033 -19.90555999999998 -29.27329000000003 -20.23055999999998 -29.649290000000033 L -34.72955999999998 -46.394290000000034 L -22.748559999999976 -27.765290000000032 C -22.478559999999977 -27.347290000000033 -22.558559999999975 -26.794290000000032 -22.934559999999976 -26.46829000000003 C -23.310559999999978 -26.143290000000032 -23.868559999999977 -26.14229000000003 -24.244559999999975 -26.46829000000003 L -40.980559999999976 -40.98129000000003 L -26.467559999999978 -24.24529000000003 C -26.141559999999977 -23.869290000000028 -26.141559999999977 -23.311290000000028 -26.467559999999978 -22.93529000000003 C -26.793559999999978 -22.55929000000003 -27.34655999999998 -22.480290000000032 -27.764559999999978 -22.74829000000003 L -46.39355999999998 -34.730290000000025 L -29.64755999999998 -20.230290000000025 C -29.27155999999998 -19.904290000000024 -29.19155999999998 -19.352290000000025 -29.46055999999998 -18.934290000000026 C -29.73055999999998 -18.516290000000026 -30.26555999999998 -18.359290000000026 -30.71755999999998 -18.565290000000026 L -50.86555999999998 -27.775290000000027 L -32.22555999999998 -15.805290000000026 C -31.80755999999998 -15.536290000000026 -31.64955999999998 -15.001290000000026 -31.85655999999998 -14.548290000000026 C -32.06355999999998 -14.096290000000026 -32.568559999999984 -13.864290000000027 -33.04855999999998 -14.004290000000026 L -54.29855999999998 -20.253290000000025 L -34.14655999999998 -11.058290000000024 C -33.69355999999998 -10.851290000000024 -33.46155999999998 -10.344290000000024 -33.60255999999998 -9.867290000000024 C -33.74355999999998 -9.390290000000023 -34.217559999999985 -9.088290000000024 -34.70455999999998 -9.159290000000023 L -56.630559999999974 -12.320290000000023 L -35.37255999999998 -6.086290000000023 C -34.89455999999998 -5.946290000000023 -34.593559999999975 -5.477290000000023 -34.66455999999998 -4.984290000000023 C -34.73555999999998 -4.492290000000023 -35.15755999999998 -4.1272900000000226 -35.65455999999998 -4.1272900000000226 L -35.65455999999998 -4.1272900000000226 L -57.80455999999998 -4.135290000000023 L -35.87855999999998 -0.9902900000000225 C -35.38655999999998 -0.9202900000000225 -35.02055999999998 -0.49829000000002255 -35.02055999999998 -0.00029000000002255 C -35.02055999999998 0.49770999999997745 -35.38655999999998 0.9187099999999775 -35.87855999999998 0.9897099999999774 L -57.80455999999998 4.134709999999977 L -35.65455999999998 4.126709999999977 C -35.156559999999985 4.126709999999977 -34.735559999999985 4.491709999999977 -34.66455999999998 4.984709999999977 C -34.59355999999998 5.476709999999977 -34.89555999999998 5.946709999999976 -35.37255999999998 6.086709999999977 L -56.629559999999984 12.319709999999976 L -34.70355999999998 9.159709999999976 C -34.21655999999998 9.093709999999975 -33.74155999999998 9.389709999999976 -33.601559999999985 9.867709999999976 C -33.461559999999984 10.345709999999976 -33.693559999999984 10.852709999999975 -34.14555999999998 11.058709999999977 L -54.29755999999998 20.253709999999977 L -33.04755999999998 14.004709999999978 C -32.567559999999986 13.865709999999979 -32.06255999999998 14.096709999999979 -31.855559999999983 14.548709999999978 C -31.648559999999982 15.001709999999978 -31.806559999999983 15.536709999999978 -32.22455999999998 15.805709999999978 L -50.86655999999998 27.77670999999998 L -30.71655999999998 18.56670999999998 C -30.264559999999978 18.36070999999998 -29.72955999999998 18.51770999999998 -29.45955999999998 18.93570999999998 C -29.19055999999998 19.353709999999978 -29.27055999999998 19.90670999999998 -29.64655999999998 20.23170999999998 L -46.39055999999998 34.729709999999976 L -27.76355999999998 22.748709999999974 C -27.34555999999998 22.479709999999976 -26.79155999999998 22.559709999999974 -26.46655999999998 22.935709999999975 C -26.14055999999998 23.311709999999977 -26.14055999999998 23.869709999999976 -26.46655999999998 24.245709999999974 L -40.97755999999998 40.98070999999997 L -24.24355999999998 26.468709999999973 C -23.86755999999998 26.142709999999973 -23.30955999999998 26.142709999999973 -22.933559999999982 26.468709999999973 C -22.55755999999998 26.794709999999974 -22.477559999999983 27.346709999999973 -22.747559999999982 27.765709999999974 L -34.72955999999998 46.39570999999997 L -20.229559999999978 29.649709999999974 C -19.905559999999976 29.274709999999974 -19.35255999999998 29.193709999999975 -18.93355999999998 29.462709999999973 C -18.51555999999998 29.73170999999997 -18.357559999999978 30.267709999999973 -18.56455999999998 30.719709999999974 L -27.77355999999998 50.867709999999974 L -15.804559999999979 32.226709999999976 C -15.535559999999979 31.809709999999974 -15.001559999999978 31.649709999999978 -14.54755999999998 31.857709999999976 C -14.09455999999998 32.06470999999998 -13.862559999999979 32.571709999999975 -14.003559999999979 33.049709999999976 L -20.252559999999978 54.30370999999998 L -11.056559999999978 34.14870999999998 C -10.849559999999977 33.69570999999998 -10.339559999999977 33.46370999999998 -9.864559999999978 33.60470999999998 C -9.387559999999977 33.74470999999998 -9.086559999999977 34.21470999999998 -9.156559999999978 34.70670999999998 L -12.317559999999977 56.629709999999974 L -6.085559999999977 35.37570999999997 C -5.958559999999977 34.94170999999997 -5.564559999999977 34.65470999999997 -5.126559999999977 34.65470999999997 z" stroke-linecap="round" />
</g>
<g transform="matrix(1.75 0 0 1.75 135 141.34)" id="n1bvXd-niD_5f7hbGy-fo"  >
<path style="stroke: none; stroke-width: 1; stroke-dasharray: none; stroke-linecap: butt; stroke-dashoffset: 0; stroke-linejoin: miter; stroke-miterlimit: 4; fill: rgb(242,229,162); fill-rule: nonzero; opacity: 1;" vector-effect="non-scaling-stroke"  transform=" translate(-38.19, -38.19)" d="M 0 38.187 C 0 17.096899999999998 17.0969 0 38.187 0 C 59.2771 0 76.374 17.0969 76.374 38.187 C 76.374 59.2771 59.27709999999999 76.374 38.187 76.374 C 17.096899999999998 76.374 0 59.27709999999999 0 38.187 z" stroke-linecap="round" />
</g>
<g transform="matrix(1.75 0 0 1.75 135 141.34)" id="XpGWf5-tPvjSgyjlvXBQO"  >
<path style="stroke: none; stroke-width: 1; stroke-dasharray: none; stroke-linecap: butt; stroke-dashoffset: 0; stroke-linejoin: miter; stroke-miterlimit: 4; fill: rgb(0,0,0); fill-rule: nonzero; opacity: 1;" vector-effect="non-scaling-stroke"  transform=" translate(-125.9, -126.11)" d="M 125.899 165.297 C 104.291 165.297 86.711 147.71699999999998 86.711 126.109 C 86.711 104.502 104.291 86.922 125.899 86.922 C 147.506 86.922 165.085 104.501 165.085 126.109 C 165.084 147.717 147.506 165.297 125.899 165.297 z M 125.899 88.923 C 105.394 88.923 88.711 105.605 88.711 126.11 C 88.711 146.615 105.394 163.298 125.899 163.298 C 146.403 163.298 163.085 146.616 163.085 126.11 C 163.084 105.605 146.403 88.923 125.899 88.923 z" stroke-linecap="round" />
</g>
<g transform="matrix(1.75 0 0 1.75 133.25 141.34)" id="zuWukAy3xf-sQHozLUZhu"  >
<path style="stroke: none; stroke-width: 1; stroke-dasharray: none; stroke-linecap: butt; stroke-dashoffset: 0; stroke-linejoin: miter; stroke-miterlimit: 4; fill: rgb(242,229,162); fill-rule: nonzero; opacity: 1;" vector-effect="non-scaling-stroke"  transform=" translate(0, 0)" d="M -33.213 0 C -33.213 -18.34303 -18.34303 -33.213 0 -33.213 C 18.34303 -33.213 33.213 -18.34303 33.213 0 C 33.213 18.34303 18.34303 33.213 0 33.213 C -18.34303 33.213 -33.213 18.34303 -33.213 0 z" stroke-linecap="round" />
</g>
<g transform="matrix(1.75 0 0 1.75 135 141.34)" id="Eo3EjdisXpB9qxCxtbNsr"  >
<path style="stroke: none; stroke-width: 1; stroke-dasharray: none; stroke-linecap: butt; stroke-dashoffset: 0; stroke-linejoin: miter; stroke-miterlimit: 4; fill: rgb(0,0,0); fill-rule: nonzero; opacity: 1;" vector-effect="non-scaling-stroke"  transform=" translate(-125.9, -126.11)" d="M 125.899 160.323 C 107.033 160.323 91.685 144.975 91.685 126.10900000000001 C 91.685 107.24400000000001 107.034 91.89600000000002 125.899 91.89600000000002 C 144.763 91.89600000000002 160.11 107.24400000000001 160.11 126.10900000000001 C 160.11 144.975 144.763 160.323 125.899 160.323 z M 125.899 93.897 C 108.136 93.897 93.685 108.34800000000001 93.685 126.11000000000001 C 93.685 143.87300000000002 108.137 158.324 125.899 158.324 C 143.66 158.324 158.11 143.87300000000002 158.11 126.11000000000001 C 158.11 108.34700000000001 143.659 93.897 125.899 93.897 z" stroke-linecap="round" />
</g>
<g transform="matrix(1.75 0 0 1.75 108.6 133.17)" id="J0ZosWCFdS0m_Vd8D0okm"  >
<path style="stroke: none; stroke-width: 1; stroke-dasharray: none; stroke-linecap: butt; stroke-dashoffset: 0; stroke-linejoin: miter; stroke-miterlimit: 4; fill: rgb(242,229,162); fill-rule: nonzero; opacity: 1;" vector-effect="non-scaling-stroke"  transform=" translate(-110.84, -121.45)" d="M 110.836 116.782 C 107.383 116.782 104.372 118.65899999999999 102.759 121.446 C 104.371 124.233 107.383 126.109 110.836 126.109 C 114.28699999999999 126.109 117.29899999999999 124.23299999999999 118.912 121.446 C 117.299 118.659 114.287 116.782 110.836 116.782 z" stroke-linecap="round" />
</g>
<g transform="matrix(1.75 0 0 1.75 108.6 133.17)" id="lPTTDtHTkwSv268nEXUQ3"  >
<path style="stroke: none; stroke-width: 1; stroke-dasharray: none; stroke-linecap: butt; stroke-dashoffset: 0; stroke-linejoin: miter; stroke-miterlimit: 4; fill: rgb(0,0,0); fill-rule: nonzero; opacity: 1;" vector-effect="non-scaling-stroke"  transform=" translate(-110.84, -121.45)" d="M 110.836 127.11 C 107.16199999999999 127.11 103.736 125.132 101.894 121.948 L 101.604 121.44699999999999 L 101.894 120.94599999999998 C 103.736 117.76099999999998 107.16300000000001 115.78299999999999 110.83600000000001 115.78299999999999 C 114.50800000000001 115.78299999999999 117.93500000000002 117.76199999999999 119.77700000000002 120.94599999999998 L 120.06700000000002 121.44699999999999 L 119.77700000000002 121.948 C 117.935 125.132 114.508 127.11 110.836 127.11 z M 103.939 121.446 C 105.47999999999999 123.719 108.071 125.109 110.836 125.109 C 113.6 125.109 116.19 123.719 117.732 121.446 C 116.19 119.172 113.598 117.782 110.836 117.782 C 108.071 117.782 105.481 119.173 103.939 121.446 z" stroke-linecap="round" />
</g>
<g transform="matrix(1.75 0 0 1.75 108.6 124.79)" id="dm94BAnPsC-JPD9EMJzUb"  >
<path style="stroke: none; stroke-width: 1; stroke-dasharray: none; stroke-linecap: butt; stroke-dashoffset: 0; stroke-linejoin: miter; stroke-miterlimit: 4; fill: rgb(0,0,0); fill-rule: nonzero; opacity: 1;" vector-effect="non-scaling-stroke"  transform=" translate(-110.83, -116.85)" d="M 122.044 121.083 C 121.698 121.083 121.363 120.904 121.178 120.584 C 119.04599999999999 116.9 115.083 114.611 110.836 114.611 C 106.587 114.611 102.624 116.9 100.492 120.584 C 100.215 121.062 99.604 121.22500000000001 99.125 120.949 C 98.647 120.672 98.484 120.06 98.76 119.582 C 101.248 115.282 105.875 112.61099999999999 110.83500000000001 112.61099999999999 C 115.79400000000001 112.61099999999999 120.42000000000002 115.282 122.90700000000001 119.582 C 123.18400000000001 120.05999999999999 123.02000000000001 120.672 122.543 120.949 C 122.386 121.04 122.214 121.083 122.044 121.083 z" stroke-linecap="round" />
</g>
<g transform="matrix(1.75 0 0 1.75 108.6 133.17)" id="MEb8fTZvvBxghzkZfz46v"  >
<path style="stroke: none; stroke-width: 1; stroke-dasharray: none; stroke-linecap: butt; stroke-dashoffset: 0; stroke-linejoin: miter; stroke-miterlimit: 4; fill: rgb(242,229,162); fill-rule: nonzero; opacity: 1;" vector-effect="non-scaling-stroke"  transform=" translate(-2.86, -2.86)" d="M 0 2.864 C 0 1.28226 1.28226 0 2.864 0 C 4.44574 0 5.728 1.28226 5.728 2.864 C 5.728 4.44574 4.44574 5.728 2.864 5.728 C 1.28226 5.728 0 4.44574 0 2.864 z" stroke-linecap="round" />
</g>
<g transform="matrix(1.75 0 0 1.75 108.6 133.17)" id="lx6J6T6GG7d_aqmMvC0JZ"  >
<path style="stroke: none; stroke-width: 1; stroke-dasharray: none; stroke-linecap: butt; stroke-dashoffset: 0; stroke-linejoin: miter; stroke-miterlimit: 4; fill: rgb(0,0,0); fill-rule: nonzero; opacity: 1;" vector-effect="non-scaling-stroke"  transform=" translate(-110.84, -121.45)" d="M 110.836 125.311 C 108.705 125.311 106.971 123.578 106.971 121.447 C 106.971 119.316 108.705 117.583 110.836 117.583 C 112.966 117.583 114.699 119.316 114.699 121.447 C 114.699 123.578 112.966 125.311 110.836 125.311 z M 110.836 119.582 C 109.80799999999999 119.582 108.971 120.41799999999999 108.971 121.446 C 108.971 122.474 109.808 123.31 110.836 123.31 C 111.863 123.31 112.699 122.474 112.699 121.446 C 112.699 120.41799999999999 111.863 119.582 110.836 119.582 z" stroke-linecap="round" />
</g>
<g transform="matrix(1.75 0 0 1.75 161.4 133.17)" id="lR_rIvUtPGtr7roGQYzB0"  >
<path style="stroke: none; stroke-width: 1; stroke-dasharray: none; stroke-linecap: butt; stroke-dashoffset: 0; stroke-linejoin: miter; stroke-miterlimit: 4; fill: rgb(242,229,162); fill-rule: nonzero; opacity: 1;" vector-effect="non-scaling-stroke"  transform=" translate(-140.96, -121.45)" d="M 140.959 116.782 C 137.508 116.782 134.496 118.65899999999999 132.883 121.446 C 134.496 124.233 137.508 126.109 140.959 126.109 C 144.41 126.109 147.424 124.23299999999999 149.035 121.446 C 147.424 118.659 144.41 116.782 140.959 116.782 z" stroke-linecap="round" />
</g>
<g transform="matrix(1.75 0 0 1.75 161.4 133.17)" id="wecIflzu6Kt4NRZ6PbWsx"  >
<path style="stroke: none; stroke-width: 1; stroke-dasharray: none; stroke-linecap: butt; stroke-dashoffset: 0; stroke-linejoin: miter; stroke-miterlimit: 4; fill: rgb(0,0,0); fill-rule: nonzero; opacity: 1;" vector-effect="non-scaling-stroke"  transform=" translate(-140.96, -121.45)" d="M 140.959 127.11 C 137.287 127.11 133.86 125.132 132.018 121.948 L 131.728 121.44699999999999 L 132.018 120.94599999999998 C 133.861 117.76099999999998 137.288 115.78299999999999 140.959 115.78299999999999 C 144.633 115.78299999999999 148.06 117.76199999999999 149.901 120.94699999999999 L 150.19 121.44699999999999 L 149.901 121.94699999999999 C 148.06 125.132 144.634 127.11 140.959 127.11 z M 134.063 121.446 C 135.605 123.719 138.196 125.109 140.95899999999997 125.109 C 143.72499999999997 125.109 146.31499999999997 123.719 147.85499999999996 121.446 C 146.31499999999997 119.172 143.72299999999996 117.782 140.95899999999997 117.782 C 138.196 117.782 135.605 119.173 134.063 121.446 z" stroke-linecap="round" />
</g>
<g transform="matrix(1.75 0 0 1.75 161.4 125.11)" id="JV3dLvXYUYI4rk29twB5c"  >
<path style="stroke: none; stroke-width: 1; stroke-dasharray: none; stroke-linecap: butt; stroke-dashoffset: 0; stroke-linejoin: miter; stroke-miterlimit: 4; fill: rgb(0,0,0); fill-rule: nonzero; opacity: 1;" vector-effect="non-scaling-stroke"  transform=" translate(-140.96, -116.85)" d="M 152.167 121.083 C 151.821 121.083 151.486 120.904 151.301 120.584 C 149.16899999999998 116.9 145.206 114.611 140.95899999999997 114.611 C 136.71199999999996 114.611 132.74899999999997 116.9 130.61699999999996 120.584 C 130.34099999999995 121.061 129.72999999999996 121.22500000000001 129.25099999999995 120.949 C 128.77299999999994 120.672 128.60899999999995 120.06 128.88699999999994 119.582 C 131.37399999999994 115.282 135.99999999999994 112.61099999999999 140.95899999999995 112.61099999999999 C 145.91799999999995 112.61099999999999 150.54399999999995 115.282 153.03099999999995 119.582 C 153.30799999999994 120.05999999999999 153.14399999999995 120.672 152.66699999999994 120.949 C 152.509 121.04 152.337 121.083 152.167 121.083 z" stroke-linecap="round" />
</g>
<g transform="matrix(1.75 0 0 1.75 161.4 133.17)" id="uwgJov9BULZoZnxmJ5DhG"  >
<path style="stroke: none; stroke-width: 1; stroke-dasharray: none; stroke-linecap: butt; stroke-dashoffset: 0; stroke-linejoin: miter; stroke-miterlimit: 4; fill: rgb(242,229,162); fill-rule: nonzero; opacity: 1;" vector-effect="non-scaling-stroke"  transform=" translate(-2.86, -2.86)" d="M 0 2.864 C 0 1.28226 1.28226 0 2.864 0 C 4.44574 0 5.728 1.28226 5.728 2.864 C 5.728 4.44574 4.44574 5.728 2.864 5.728 C 1.28226 5.728 0 4.44574 0 2.864 z" stroke-linecap="round" />
</g>
<g transform="matrix(1.75 0 0 1.75 161.4 133.17)" id="PbnfRSXvJpQ---LfEVp6k"  >
<path style="stroke: none; stroke-width: 1; stroke-dasharray: none; stroke-linecap: butt; stroke-dashoffset: 0; stroke-linejoin: miter; stroke-miterlimit: 4; fill: rgb(0,0,0); fill-rule: nonzero; opacity: 1;" vector-effect="non-scaling-stroke"  transform=" translate(-140.96, -121.45)" d="M 140.959 125.311 C 138.829 125.311 137.096 123.578 137.096 121.447 C 137.096 119.316 138.829 117.583 140.959 117.583 C 143.09 117.583 144.824 119.316 144.824 121.447 C 144.824 123.578 143.09 125.311 140.959 125.311 z M 140.959 119.582 C 139.93200000000002 119.582 139.096 120.41799999999999 139.096 121.446 C 139.096 122.474 139.93200000000002 123.31 140.959 123.31 C 141.987 123.31 142.824 122.474 142.824 121.446 C 142.824 120.41799999999999 141.987 119.582 140.959 119.582 z" stroke-linecap="round" />
</g>
<g transform="matrix(1.75 0 0 1.75 135 173.68)" id="CO744EC571tusYZWQI34B"  >
<path style="stroke: none; stroke-width: 1; stroke-dasharray: none; stroke-linecap: butt; stroke-dashoffset: 0; stroke-linejoin: miter; stroke-miterlimit: 4; fill: rgb(242,229,162); fill-rule: nonzero; opacity: 1;" vector-effect="non-scaling-stroke"  transform=" translate(-125.9, -144.55)" d="M 125.899 141.236 C 119.622 141.236 114.145 139.891 111.214 142.98399999999998 C 114.146 146.07699999999997 119.622 148.15999999999997 125.899 148.15999999999997 C 132.174 148.15999999999997 137.649 146.07699999999997 140.583 142.98399999999998 C 137.649 139.891 132.174 141.236 125.899 141.236 z" stroke-linecap="round" />
</g>
<g transform="matrix(1.75 0 0 1.75 135 173.66)" id="TrmeqW3yCuAb-qUADzDJD"  >
<path style="stroke: none; stroke-width: 1; stroke-dasharray: none; stroke-linecap: butt; stroke-dashoffset: 0; stroke-linejoin: miter; stroke-miterlimit: 4; fill: rgb(0,0,0); fill-rule: nonzero; opacity: 1;" vector-effect="non-scaling-stroke"  transform=" translate(-125.9, -144.55)" d="M 125.899 149.159 C 119.506 149.159 113.745 147.107 110.488 143.671 C 110.122 143.285 110.122 142.68099999999998 110.488 142.295 C 112.452 140.22299999999998 115.304 139.944 117.835 139.944 C 119.002 139.944 120.229 140.01 121.526 140.07999999999998 C 124.344 140.23199999999997 127.45 140.23199999999997 130.26999999999998 140.07999999999998 C 131.56799999999998 140.01 132.79299999999998 139.944 133.95999999999998 139.944 C 136.49099999999999 139.944 139.343 140.22299999999998 141.308 142.295 C 141.674 142.68099999999998 141.674 143.285 141.308 143.671 C 138.048 147.108 132.288 149.159 125.899 149.159 z M 112.703 143.024 C 115.68 145.594 120.613 147.159 125.898 147.159 C 131.18 147.159 136.113 145.594 139.09 143.024 C 137.96 142.266 136.382 141.944 133.959 141.944 C 132.847 141.944 131.64600000000002 142.009 130.377 142.077 C 128.94 142.155 127.456 142.23499999999999 125.89800000000001 142.23499999999999 C 124.34000000000002 142.23499999999999 122.85400000000001 142.15499999999997 121.418 142.077 C 120.147 142.009 118.947 141.944 117.834 141.944 C 115.411 141.945 113.833 142.266 112.703 143.024 z" stroke-linecap="round" />
</g>
<g transform="matrix(1.75 0 0 1.75 135 170.51)" id="qkktFqPBgzdQSjtjn4emF"  >
<path style="stroke: none; stroke-width: 1; stroke-dasharray: none; stroke-linecap: butt; stroke-dashoffset: 0; stroke-linejoin: miter; stroke-miterlimit: 4; fill: rgb(0,0,0); fill-rule: nonzero; opacity: 1;" vector-effect="non-scaling-stroke"  transform=" translate(-125.9, -142.75)" d="M 125.899 145.552 C 120.56700000000001 145.552 115.46000000000001 144.938 111.13 143.778 C 110.78099999999999 143.685 110.511 143.411 110.42099999999999 143.06199999999998 C 110.33 142.713 110.43499999999999 142.343 110.69399999999999 142.09199999999998 C 112.65399999999998 140.201 115.40799999999999 139.946 117.84299999999999 139.946 C 119.00899999999999 139.946 120.234 140.012 121.53099999999999 140.082 C 124.34599999999999 140.233 127.44699999999999 140.233 130.262 140.082 C 131.558 140.012 132.783 139.947 133.948 139.947 C 136.38400000000001 139.947 139.138 140.202 141.1 142.092 C 141.35899999999998 142.342 141.464 142.71300000000002 141.374 143.062 C 141.283 143.411 141.013 143.685 140.664 143.77800000000002 C 136.336 144.938 131.23 145.552 125.899 145.552 z M 114.023 142.408 C 117.634 143.159 121.69 143.552 125.899 143.552 C 130.107 143.552 134.161 143.159 137.772 142.409 C 136.78699999999998 142.09199999999998 135.545 141.947 133.94899999999998 141.947 C 132.837 141.947 131.63899999999998 142.011 130.37099999999998 142.079 C 128.93699999999998 142.156 127.45499999999998 142.23600000000002 125.89899999999999 142.23600000000002 C 124.34199999999998 142.23600000000002 122.85899999999998 142.156 121.42399999999999 142.079 C 120.154 142.011 118.95599999999999 141.946 117.844 141.946 C 116.248 141.946 115.008 142.091 114.023 142.408 z" stroke-linecap="round" />
</g>
<g transform="matrix(1.75 0 0 1.75 128.88 150.19)" id="GzbTK_xlqws1DhutrtYwf"  >
<path style="stroke: none; stroke-width: 1; stroke-dasharray: none; stroke-linecap: butt; stroke-dashoffset: 0; stroke-linejoin: miter; stroke-miterlimit: 4; fill: rgb(0,0,0); fill-rule: nonzero; opacity: 1;" vector-effect="non-scaling-stroke"  transform=" translate(-122.41, -131.16)" d="M 125.899 135.125 L 118.913 135.125 C 118.494 135.125 118.119 134.863 117.975 134.47 C 117.83099999999999 134.077 117.94699999999999 133.635 118.26599999999999 133.363 L 125.252 127.428 C 125.67399999999999 127.072 126.304 127.121 126.661 127.54299999999999 C 127.019 127.964 126.968 128.595 126.547 128.953 L 121.63499999999999 133.125 L 125.89999999999999 133.125 C 126.45299999999999 133.125 126.89999999999999 133.573 126.89999999999999 134.125 C 126.89999999999999 134.677 126.451 135.125 125.899 135.125 z" stroke-linecap="round" />
</g>
</svg>